<svg xmlns="http://www.w3.org/2000/svg" version="1.1" viewBox="0 0 500 500" width="500" height="500"><path fill="rgb(124,87,59)" fill-opacity="0.000" d="M0 0Q250 0 500 0Q500 250 500 500Q250 500 0 500Q0 250 0 0ZM200.02 220.15A0.82 0.81 54.7 0 1 200.23 218.86Q216.22 210.69 228.29 197.54Q232.38 193.09 235.06 187.06Q239.77 176.5 232.77 170.13Q229.81 167.43 225.06 166.01Q220.8 164.73 216.25 164.68Q204.89 164.54 193.48 167.9A0.73 0.73 80 0 1 192.54 167.24Q191.95 156.77 182.92 151.01A0.73 0.71 22.5 0 1 182.6 150.26Q184.79 140.47 195 138.5Q197.98 137.92 198.71 135.47Q199.39 133.17 197.75 131.51Q195.91 129.63 192.5 130.25Q177.21 133.01 172.57 147.79Q172 149.61 171.5 147.76Q167.8 133.9 154 130.25Q150.07 129.21 146.89 131.8Q145.62 132.84 145.34 134.2Q144.97 135.96 145.99 137.25Q146.77 138.24 149.44 138.87Q158.8 141.09 161.56 150.7A0.68 0.68 -24 0 1 161.27 151.45Q153.32 156.63 151.26 167.24A0.77 0.77 13.9 0 1 150.28 167.83Q137.02 163.83 123.5 165Q119.66 165.33 115.6 167.31Q111.5 169.3 109.47 172.44Q105.35 178.79 108.84 186.85Q111.26 192.43 114.31 195.94Q126.76 210.24 143.59 218.76A0.63 0.62 -55.2 0 1 143.76 219.74L123.41 241.71A0.53 0.52 -48.5 0 1 122.67 241.76L111.27 231.91A0.62 0.62 39.6 0 0 110.38 231.99L108.64 234.09A0.6 0.59 -49.5 0 0 108.7 234.92Q122.33 246.77 135.28 257.99Q135.36 258.06 136.47 259.24Q138.33 261.21 140.26 257.76A0.64 0.64 35.1 0 0 140.12 256.97L129.2 247.57A0.42 0.41 -48.2 0 1 129.17 246.97L145.32 229.55Q145.94 228.89 145.94 229.78Q145.97 254.06 164.83 269.16Q168.1 271.78 171.97 273.26A1.07 1.06 -49.2 0 0 172.88 273.19Q197.42 259.16 198.25 230.09Q198.27 229.5 198.67 229.93L214.14 246.49A0.79 0.78 -42 0 1 214.07 247.62L203.86 256.47A1.01 1 56.3 0 0 203.62 257.68Q205.31 261.03 207.44 258.81Q208.74 257.46 208.78 257.43Q220.68 246.88 232.77 236.55Q232.83 236.5 233.65 235.87Q235.81 234.23 233.55 232.18A1.24 1.2 -43.8 0 0 231.94 232.17L220.89 241.44A0.54 0.52 48.6 0 1 220.16 241.38L200.02 220.15ZM134.661 259.812A0.74 0.74 0 0 0 134.583 258.769L110.959 238.449A0.74 0.74 0 0 0 109.916 238.528L108.299 240.408A0.74 0.74 0 0 0 108.377 241.451L132.001 261.771A0.74 0.74 0 0 0 133.044 261.692L134.661 259.812ZM233.812 238.744A1.12 1.12 0 0 0 232.232 238.625L209.337 258.319A1.12 1.12 0 0 0 209.218 259.898L210.248 261.096A1.12 1.12 0 0 0 211.828 261.215L234.723 241.521A1.12 1.12 0 0 0 234.842 239.942L233.812 238.744ZM127.466 260.815A0.7 0.7 0 0 0 127.402 259.827L111.325 245.703A0.7 0.7 0 0 0 110.337 245.767L108.634 247.705A0.7 0.7 0 0 0 108.698 248.693L124.775 262.817A0.7 0.7 0 0 0 125.763 262.753L127.466 260.815ZM233.624 245.996A1.33 1.33 0 0 0 231.747 245.875L216.646 259.14A1.33 1.33 0 0 0 216.525 261.017L217.356 261.964A1.33 1.33 0 0 0 219.233 262.086L234.334 248.82A1.33 1.33 0 0 0 234.455 246.942L233.624 245.996Z"/><path fill="rgb(66,65,55)" fill-opacity="1.000" d="M200.02 220.15L220.16 241.38A0.54 0.52 48.6 0 0 220.89 241.44L231.94 232.17A1.24 1.2 -43.8 0 1 233.55 232.18Q235.81 234.23 233.65 235.87Q232.83 236.5 232.77 236.55Q220.68 246.88 208.78 257.43Q208.74 257.46 207.44 258.81Q205.31 261.03 203.62 257.68A1.01 1 56.3 0 1 203.86 256.47L214.07 247.62A0.79 0.78 -42 0 0 214.14 246.49L198.67 229.93Q198.27 229.5 198.25 230.09Q197.42 259.16 172.88 273.19A1.07 1.06 -49.2 0 1 171.97 273.26Q168.1 271.78 164.83 269.16Q145.97 254.06 145.94 229.78Q145.94 228.89 145.32 229.55L129.17 246.97A0.42 0.41 -48.2 0 0 129.2 247.57L140.12 256.97A0.64 0.64 35.1 0 1 140.26 257.76Q138.33 261.21 136.47 259.24Q135.36 258.06 135.28 257.99Q122.33 246.77 108.7 234.92A0.6 0.59 -49.5 0 1 108.64 234.09L110.38 231.99A0.62 0.62 39.6 0 1 111.27 231.91L122.67 241.76A0.53 0.52 -48.5 0 0 123.41 241.71L143.76 219.74A0.63 0.62 -55.2 0 0 143.59 218.76Q126.76 210.24 114.31 195.94Q111.26 192.43 108.84 186.85Q105.35 178.79 109.47 172.44Q111.5 169.3 115.6 167.31Q119.66 165.33 123.5 165Q137.02 163.83 150.28 167.83A0.77 0.77 13.9 0 0 151.26 167.24Q153.32 156.63 161.27 151.45A0.68 0.68 -24 0 0 161.56 150.7Q158.8 141.09 149.44 138.87Q146.77 138.24 145.99 137.25Q144.97 135.96 145.34 134.2Q145.62 132.84 146.89 131.8Q150.07 129.21 154 130.25Q167.8 133.9 171.5 147.76Q172 149.61 172.57 147.79Q177.21 133.01 192.5 130.25Q195.91 129.63 197.75 131.51Q199.39 133.17 198.71 135.47Q197.98 137.92 195 138.5Q184.79 140.47 182.6 150.26A0.73 0.71 22.5 0 0 182.92 151.01Q191.95 156.77 192.54 167.24A0.73 0.73 80 0 0 193.48 167.9Q204.89 164.54 216.25 164.68Q220.8 164.73 225.06 166.01Q229.81 167.43 232.77 170.13Q239.77 176.5 235.06 187.06Q232.38 193.09 228.29 197.54Q216.22 210.69 200.23 218.86A0.82 0.81 54.7 0 0 200.02 220.15ZM177.81 159.94Q175.08 157.74 172.23 157.42Q169.52 157.11 166.73 158.96Q160.39 163.17 162.32 171.59A1.15 1.01 9.6 0 0 162.88 172.28L171.53 176.86A1.51 1.31 -42.7 0 0 172.87 176.82L180.95 172.56A1.28 1 -11.4 0 0 181.55 171.86Q183.52 164.53 177.81 159.94ZM118.5 176.29L116.21 177.75Q114.61 180.81 116.46 183.75Q119.8 190.19 125 195.25Q134.72 204.72 147.43 211.36A0.77 0.77 -66.9 0 0 148.51 210.92Q153.81 195.63 164.19 184.44Q165.4 183.13 163.75 182.71Q163.6 182.17 162.56 181.69Q151.72 176.62 142.25 174.71Q131.68 172.07 121 174.25Q118.35 174.79 118.06 175.56Q117.78 176.32 118.5 176.29ZM179.5 183.29Q179.02 183.47 179.01 183.85Q178.99 184.11 179.29 184.43Q190.25 196.22 195.19 211.57A0.25 0.25 -22.3 0 0 195.55 211.72Q207.6 205.41 217.63 196.13Q222.56 191.57 226.14 185.91Q228.01 182.95 227.89 179.62Q227.82 177.67 226.37 176.54Q224.91 175.4 223 174.96L223 174.75A0.34 0.22 11 0 0 222.75 174.51Q216.11 172.58 207.94 173.69Q192.7 175.76 180.51 182.26Q180.35 182.35 179.83 182.48Q179.23 182.63 179.5 183.29ZM164.63 198.5Q172.13 199.95 179.41 198.54A0.33 0.32 -23.9 0 0 179.62 198.02L172.6 189.24A0.79 0.79 45.4 0 0 171.37 189.23L164.38 197.89A0.39 0.38 24 0 0 164.63 198.5ZM169.31 207.94Q167.25 207.86 160.29 206.41A0.68 0.66 -69.6 0 0 159.57 206.75Q157.53 210.51 156.66 214.69A0.64 0.64 -72.1 0 0 157.02 215.4Q172.01 222.26 187.05 215.46A0.62 0.62 71.2 0 0 187.39 214.76Q186.37 210.49 184.24 206.68A0.64 0.62 -21.2 0 0 183.52 206.38Q176.54 208.22 169.31 207.94ZM165.48 226.99Q160.53 226.08 155.53 224.24A0.57 0.56 -77.3 0 0 154.78 224.72Q154.14 231.12 155.22 237.2A0.99 0.99 7.9 0 0 155.76 237.91Q171.79 245.68 187.42 238.27A2.31 2.28 -8.3 0 0 188.71 236.56Q189.78 229.89 189.2 224.55A0.51 0.51 -13.6 0 0 188.51 224.13Q182.15 226.67 175.69 227.39Q170.71 227.96 165.48 226.99ZM170.32 250.5Q164.93 250.25 159.74 248.75Q158.74 248.46 159.22 249.38Q163.57 257.72 171.51 263.33A0.78 0.78 44.2 0 0 172.42 263.32Q180.39 257.45 184.78 249.37Q185.29 248.43 184.27 248.75Q177.44 250.83 170.32 250.5Z"/><path fill="rgb(124,87,59)" fill-opacity="0.000" d="M177.81 159.94Q183.52 164.53 181.55 171.86A1.28 1 -11.4 0 1 180.95 172.56L172.87 176.82A1.51 1.31 -42.7 0 1 171.53 176.86L162.88 172.28A1.15 1.01 9.6 0 1 162.32 171.59Q160.39 163.17 166.73 158.96Q169.52 157.11 172.23 157.42Q175.08 157.74 177.81 159.94Z"/><path fill="rgb(124,87,59)" fill-opacity="0.000" d="M142.25 174.71L142 175.29Q133.05 173.71 125.25 174.5Q122.38 174.79 118.5 176.29Q117.78 176.32 118.06 175.56Q118.35 174.79 121 174.25Q131.68 172.07 142.25 174.71Z"/><path fill="rgb(124,87,59)" fill-opacity="0.000" d="M223 174.96Q212.03 173.37 201.19 175.68Q189.85 178.09 179.5 183.29Q179.23 182.63 179.83 182.48Q180.35 182.35 180.51 182.26Q192.7 175.76 207.94 173.69Q216.11 172.58 222.75 174.51A0.34 0.22 11 0 1 223 174.75L223 174.96Z"/><path fill="rgb(255,204,41)" fill-opacity="1.000" d="M142 175.29Q153.38 177.53 163.75 182.71Q165.4 183.13 164.19 184.44Q153.81 195.63 148.51 210.92A0.77 0.77 -66.9 0 1 147.43 211.36Q134.72 204.72 125 195.25Q119.8 190.19 116.46 183.75L116.21 177.75L118.5 176.29Q122.38 174.79 125.25 174.5Q133.05 173.71 142 175.29Z"/><path fill="rgb(255,204,41)" fill-opacity="1.000" d="M223 174.96Q224.91 175.4 226.37 176.54Q227.82 177.67 227.89 179.62Q228.01 182.95 226.14 185.91Q222.56 191.57 217.63 196.13Q207.6 205.41 195.55 211.72A0.25 0.25 -22.3 0 1 195.19 211.57Q190.25 196.22 179.29 184.43Q178.99 184.11 179.01 183.85Q179.02 183.47 179.5 183.29Q189.85 178.09 201.19 175.68Q212.03 173.37 223 174.96Z"/><path fill="rgb(17,16,8)" fill-opacity="0.627" d="M142.25 174.71Q151.72 176.62 162.56 181.69Q163.6 182.17 163.75 182.71Q153.38 177.53 142 175.29L142.25 174.71Z"/><path fill="rgb(151,128,35)" fill-opacity="1.000" d="M116.21 177.75L116.46 183.75Q114.61 180.81 116.21 177.75Z"/><path fill="rgb(124,87,59)" fill-opacity="0.000" d="M164.63 198.5A0.39 0.38 24 0 1 164.38 197.89L171.37 189.23A0.79 0.79 45.4 0 1 172.6 189.24L179.62 198.02A0.33 0.32 -23.9 0 1 179.41 198.54Q172.13 199.95 164.63 198.5Z"/><path fill="rgb(124,87,59)" fill-opacity="0.000" d="M169.31 207.94Q176.54 208.22 183.52 206.38A0.64 0.62 -21.2 0 1 184.24 206.68Q186.37 210.49 187.39 214.76A0.62 0.62 71.2 0 1 187.05 215.46Q172.01 222.26 157.02 215.4A0.64 0.64 -72.1 0 1 156.66 214.69Q157.53 210.51 159.57 206.75A0.68 0.66 -69.6 0 1 160.29 206.41Q167.25 207.86 169.31 207.94Z"/><path fill="rgb(124,87,59)" fill-opacity="0.000" d="M175.69 227.39Q182.15 226.67 188.51 224.13A0.51 0.51 -13.6 0 1 189.2 224.55Q189.78 229.89 188.71 236.56A2.31 2.28 -8.3 0 1 187.42 238.27Q171.79 245.68 155.76 237.91A0.99 0.99 7.9 0 1 155.22 237.2Q154.14 231.12 154.78 224.72A0.57 0.56 -77.3 0 1 155.53 224.24Q160.53 226.08 165.48 226.99Q170.71 227.96 175.69 227.39Z"/><path fill="rgb(66,65,55)" fill-opacity="1.000" x="-16.32" y="-1.98" width="32.64" height="3.96" rx="0.74" transform="translate(121.48,250.11) rotate(40.7)" d="M-15.58 -1.98H15.58A0.74 0.74 0 0 1 16.32 -1.24V1.24A0.74 0.74 0 0 1 15.58 1.98H-15.58A0.74 0.74 0 0 1 -16.32 1.24V-1.24A0.74 0.74 0 0 1 -15.58 -1.98z"/><path fill="rgb(66,65,55)" fill-opacity="1.000" x="-16.22" y="-1.91" width="32.44" height="3.82" rx="1.12" transform="translate(222.03,249.92) rotate(-40.7)" d="M-15.1 -1.91H15.1A1.12 1.12 0 0 1 16.22 -0.79V0.79A1.12 1.12 0 0 1 15.1 1.91H-15.1A1.12 1.12 0 0 1 -16.22 0.79V-0.79A1.12 1.12 0 0 1 -15.1 -1.91z"/><path fill="rgb(66,65,55)" fill-opacity="1.000" x="-11.40" y="-1.99" width="22.80" height="3.98" rx="0.70" transform="translate(118.05,254.26) rotate(41.3)" d="M-10.7 -1.99H10.7A0.7 0.7 0 0 1 11.4 -1.29V1.29A0.7 0.7 0 0 1 10.7 1.99H-10.7A0.7 0.7 0 0 1 -11.4 1.29V-1.29A0.7 0.7 0 0 1 -10.7 -1.99z"/><path fill="rgb(66,65,55)" fill-opacity="1.000" x="-11.38" y="-1.96" width="22.76" height="3.92" rx="1.33" transform="translate(225.49,253.98) rotate(-41.3)" d="M-10.05 -1.96H10.05A1.33 1.33 0 0 1 11.38 -0.63V0.63A1.33 1.33 0 0 1 10.05 1.96H-10.05A1.33 1.33 0 0 1 -11.38 0.63V-0.63A1.33 1.33 0 0 1 -10.05 -1.96z"/><path fill="rgb(124,87,59)" fill-opacity="0.000" d="M170.32 250.5Q177.44 250.83 184.27 248.75Q185.29 248.43 184.78 249.37Q180.39 257.45 172.42 263.32A0.78 0.78 44.2 0 1 171.51 263.33Q163.57 257.72 159.22 249.38Q158.74 248.46 159.74 248.75Q164.93 250.25 170.32 250.5Z"/></svg>